<svg width="120" height="120" xmlns="http://www.w3.org/2000/svg" xmlns:xlink="http://www.w3.org/1999/xlink"><title>Instagram Logo</title><defs><path d="M63.666.001c12.986.012 15.187.092 21.072.36 6.386.291 10.748 1.306 14.564 2.789 3.946 1.533 7.292 3.585 10.628 6.92 3.335 3.336 5.387 6.682 6.92 10.628 1.483 3.816 2.498 8.178 2.789 14.564.279 6.105.354 8.246.36 22.58v4.317c-.006 14.333-.081 16.474-.36 22.579-.291 6.386-1.306 10.748-2.789 14.564-1.533 3.946-3.585 7.292-6.92 10.628-3.336 3.335-6.682 5.387-10.628 6.92-3.816 1.483-8.178 2.498-14.564 2.789-6.105.279-8.246.354-22.579.36h-4.318c-14.333-.006-16.474-.081-22.579-.36-6.386-.291-10.748-1.306-14.564-2.789-3.946-1.533-7.292-3.585-10.628-6.92-3.335-3.336-5.387-6.682-6.92-10.628C1.667 95.486.652 91.124.361 84.738c-.268-5.885-.348-8.086-.36-21.072v-7.332c.012-12.986.092-15.187.36-21.072.291-6.386 1.306-10.748 2.789-14.564 1.533-3.946 3.585-7.292 6.92-10.628 3.336-3.335 6.682-5.387 10.628-6.92C24.514 1.667 28.876.652 35.262.361c5.885-.268 8.086-.348 21.072-.36zm-1.011 10.81h-5.31c-13.601.008-15.631.078-21.59.35-5.85.266-9.027 1.244-11.141 2.066-2.8 1.088-4.8 2.388-6.9 4.488-2.099 2.1-3.399 4.098-4.487 6.899-.822 2.114-1.8 5.29-2.066 11.14-.272 5.96-.342 7.99-.35 21.591v5.31c.008 13.601.078 15.631.35 21.59.266 5.85 1.244 9.027 2.066 11.141 1.088 2.8 2.388 4.8 4.488 6.9 2.1 2.099 4.098 3.399 6.899 4.487 2.114.822 5.29 1.8 11.14 2.066 5.96.272 7.989.342 21.591.35h5.31c13.602-.008 15.632-.078 21.59-.35 5.85-.266 9.027-1.244 11.141-2.066 2.8-1.088 4.8-2.388 6.9-4.488 2.099-2.1 3.399-4.098 4.487-6.899.822-2.114 1.8-5.29 2.066-11.14.272-5.96.342-7.99.35-21.591v-5.31c-.008-13.601-.078-15.631-.35-21.59-.266-5.85-1.244-9.027-2.066-11.141-1.088-2.8-2.388-4.8-4.488-6.9-2.1-2.099-4.098-3.399-6.899-4.487-2.114-.822-5.29-1.8-11.14-2.066-5.96-.272-7.99-.342-21.591-.35zm-2.57 18.342c17.083 0 30.932 13.848 30.932 30.932 0 17.083-13.849 30.932-30.932 30.932-17.084 0-30.932-13.849-30.932-30.932C29.153 43 43 29.153 60.085 29.153zm0 10.853c-11.09 0-20.08 8.99-20.08 20.079s8.99 20.079 20.08 20.079c11.089 0 20.079-8.99 20.079-20.08 0-11.089-8.99-20.078-20.08-20.078zm32.288-19.159a7.288 7.288 0 110 14.577 7.288 7.288 0 010-14.577z" id="a"/></defs><use fill="#A8986C" xlink:href="#a" fill-rule="evenodd"/></svg>