<svg width="312" height="312" xmlns="http://www.w3.org/2000/svg"><g transform="translate(-.727 -.195)" fill="none" fill-rule="evenodd"><circle fill="#B8CAE5" cx="156.727" cy="156.195" r="156"/><path d="M253.367 184.231c1.322.6 2.137 2.039 2.286 3.453.425 2.803-.067 5.626-.66 8.362-.386 1.593.328 3.132.776 4.629 1.847 4.023 3.574 8.217 3.994 12.666-.203 2.024-.217 4.406-1.804 5.893-.068.223-.208.663-.275.886-2.875 3.24-7.741 5.762-11.899 3.36-.627-.736-1.413-1.297-2.18-1.873-1.726 1.544-3.192 3.597-5.56 4.183-2.335.94-4.891.262-7.08-.731-1.626-.77-2.46-2.46-3.324-3.941-1.929.387-3.13 2.053-4.765 2.977-2.001.417-4.273.29-6.01-.9-1.113-.785-2-1.83-2.956-2.784a82.574 82.574 0 00-4.312 3.912c-1.46.305-2.96.571-4.451.382-1.302-.513-2.445-1.346-3.752-1.85-.574 10.15-.082 20.386-1.36 30.49-.488 5.768-.86 11.559-1.862 17.262-.44 2.765-.738 5.612-1.997 8.16l-1.818-.77c-.12-.252-.357-.766-.478-1.017.53-16.052 1.587-32.064 2.629-48.086.415-2.886.42-5.806.323-8.711-.323.005-.96.024-1.278.034-1.143.944-2.257 2.082-3.777 2.348-.69.354-1.37.722-2.04 1.104a21.534 21.534 0 01-5.69-.063c-.174-.227-.531-.687-.71-.915-1.62-1.278-2.985-2.89-3.82-4.789-2.783-5.607-2.42-13.199 2.518-17.494 1.93-1.186 3.825-2.885 6.231-2.77 1.862.04 4.047-.319 5.556 1.032 1.23.94 2.277 2.101 3.323 3.24.878-.18 1.93-.243 2.18-1.303.367-.107.734-.208 1.105-.305.492-1.448 1.186-2.813 1.862-4.179.65.13 1.297.266 1.948.407-.762 4.61-2.132 9.142-2.18 13.853.043 3.467.371 7.63 3.294 9.945 1.606 1.535 3.945.392 5.31-.895.883-.674 2.262-1.342 2.012-2.693-.29-3.926.024-7.911.998-11.727.69-2.077.974-4.42 2.464-6.115.69.537 1.717 1.259 1.346 2.295a28.464 28.464 0 00-.651 6.425c.039 2.561-.608 5.104-.338 7.675.17 1.631.859 3.137 1.481 4.638 1.437.756 3.227 1.279 4.76.46 1.26-.91 2.315-2.062 3.473-3.094-.589-4.454-.859-9.03.193-13.441.593-1.046 1.027-2.18 1.654-3.206.945-1.171 2.175-2.062 3.275-3.084 1.953-.363 3.97-.295 5.87.32.911 1.133 2.218 2.067 2.488 3.592 1.129 3.438-.144 7.09-2.194 9.888-2.016 2.367-4.327 4.498-6.762 6.43 0 .581.005 1.162.01 1.748.78 1.273 1.905 2.266 3.192 3.012 2.72.62 5.286-.688 7.124-2.63 1.5-1.162.892-3.215 1.003-4.837.762.039 1.852-.261 2.18.683.849 1.593 1.765 3.171 3.265 4.246 1.129.058 2.262.092 3.4.112 1.857-.891 3.902-1.952 4.481-4.126.878-4.222-1.013-8.284-2.3-12.201-.463-.005-.927-.005-1.385-.005-1.596 3.18-3.69 6.043-5.98 8.75-.449.75-1.39.503-2.103.512-.52-1.278.627-2.324 1.312-3.258 2.04-2.533 3.294-5.559 5.035-8.285.362-1.07.733-2.135 1.153-3.181-1.003-4.251-1.076-8.779.443-12.914.584-.42 1.163-.852 1.804-1.19zM98.158 150.768c2.132.75 3.342 2.775 4.698 4.445 1.553 3.898 1.292 8.135 1.996 12.207.352 6.817 1.008 13.606 1.163 20.433.106 1.753.246 3.52.665 5.23.449.314.912.61 1.394.88.039.717.048 1.434.005 2.15-.55.48-1.34.916-1.225 1.778-.116 4.047.579 8.061.583 12.11.338 5.108.107 10.937 3.902 14.913l2.079-.213c.965-1.1 1.924-2.44 3.569-2.363l.362-.48c1.765-.615 2.532-2.455 3.627-3.815 2.117-3.569 3.492-7.684 3.482-11.868.038-2.092.275-4.169.362-6.256.352-.48.709-.958 1.065-1.438.632.165 1.283.3 1.891.562.627.537.622 1.477.724 2.242.086 6.982-.049 14.095 1.794 20.893.612-.092 1.225-.17 1.837-.295 1.409-2.94 2.431-6.034 3.396-9.137-.049-.165-.15-.484-.198-.65.675-1.762 1.582-3.727 3.728-3.93 3.405 3.04 1.717 8.114 3.7 11.818.993 1.72 3.09 2.053 4.789 2.697.998-.939 1.88-1.98 2.749-3.035.029-.272.082-.804.11-1.07.787-1.41 1.578-2.833 2.002-4.402.338-1.912-.362-3.777-.694-5.636-1.105-8.304-1.592-16.695-1.22-25.072.255-5.776.265-11.62 1.504-17.29.579.048 1.167.048 1.746.14 1.08 1.564 1.148 3.564 1.5 5.38.656 3.205.637 6.492 1.042 9.732.386 2.72.318 5.48.516 8.221 2.074.223 4.177.044 6.246.325.472.586.54 1.37.506 2.101-.694.838-1.765 1.21-2.686 1.734-1.331-.025-2.663-.034-3.984-.14-.265 2.551-.005 5.108-.077 7.664-.005 3.414-.921 6.755-.94 10.159.52 2.837 1.514 5.568 2.32 8.333.655.818 1.162 1.738 1.663 2.658.425.474.873.92 1.346 1.35 1.567.18 3.144.088 4.717-.043a38.769 38.769 0 01-.184 2.107c-.984.92-2.401.915-3.631 1.225-1.24-.465-2.62-.78-3.492-1.86-1.722-1.96-3.309-4.096-4.312-6.527-.246 0-.738.005-.984.005-1.698 2.988-3.169 6.556-6.545 7.985-.352-.485-.699-.974-1.046-1.458a141.76 141.76 0 01-1.114-.407 43.42 43.42 0 01-2.957-.77c-1.34-1.573-2.18-3.524-3.569-5.04-1.76 2.837-2.6 6.43-5.633 8.265-1.664-.126-3.656-.029-4.717-1.598-1.013-1.757-1.611-3.747-2.185-5.694-.13-.513-.25-1.031-.366-1.544-.193-.054-.57-.16-.763-.209-.342.683-.68 1.37-1.017 2.058-2.079 1.743-3.516 4.324-6.12 5.36-1.409.683-2.49 1.918-3.965 2.484-1.486.407-2.966-.31-4.346-.794-2.025-1.922-3.501-4.338-4.427-6.972-.767-3.065-.83-6.242-1.027-9.374-.111-1.71-.753-3.37-.473-5.094-.16-2.668-.27-5.36-.844-7.975-1.288-.707-2.778-.058-4.138.005-3.82.528-7.587-.484-11.402-.494-.386 5.196-.43 10.44.608 15.567.183 2.189 1.683 4.397.458 6.517-.883.17-1.77.33-2.662.47-.825-1.327-1.428-2.78-1.722-4.314-1.191-6.387-1.133-12.909-.608-19.358-.916-.34-1.799-.75-2.619-1.279.198-.561.391-1.123.589-1.68.685.058 1.365.116 2.05.184.771-1.879.583-3.956.8-5.936l-1.157-.48c-1.843-4.75-2.532-9.867-2.769-14.937-.342-4.924.685-9.945 2.875-14.361 2.373-4.097 6.665-6.677 11.155-7.815 1.524-.19 3.077.198 4.505.716zm70.213 53.519c.7.344 1.394.682 2.098 1.021.121 4.75-.897 9.563.15 14.26.25 1.307 1.2 2.266 2.093 3.181 2.489.223 4.93-.29 7.104-1.52.338.867.53 1.777.676 2.697-1.563 1.176-3.164 2.673-5.253 2.615-1.678-.01-3.752.556-5.069-.795-4.61-4.014-4.374-10.957-3.303-16.457.434-1.685.438-3.54 1.504-5.002zm14.489 1.109c-1.37 2.551-1.486 5.587-1.076 8.405.44 1.36 1.07 2.654 1.51 4.024.767.842 1.48 1.762 2.426 2.421 1.384.973 3.115.247 4.654.203 1.418-.818 2.87-1.612 4.056-2.764-.092-.184-.275-.557-.366-.741.429-.402.863-.804 1.302-1.206.68.242 1.36.494 2.045.75-.044-1.258-.092-2.522-.328-3.757-.67-2.74-.868-5.699-2.547-8.076-.974-1.995-3.231-2.954-5.353-2.973-2.677-.349-4.77 1.82-6.323 3.714zm50.43-4.237c-1.062.804-2.244 1.583-2.721 2.89-1.177 3.051-1.558 6.528-.584 9.69 1.298-1.284 2.417-2.746 3.844-3.903 2.093-1.724 2.798-4.62 2.46-7.23-.468-.406-.93-.808-1.389-1.21-.405-.058-1.21-.18-1.61-.237zM95.35 153.779c-2.604-.009-5.233.98-7.07 2.853-.058 1.225.578 2.411.564 3.66-.087 5.317.038 10.663-.646 15.945-.295 4.958-.705 9.907-1.086 14.86 0 .833-.212 1.763.28 2.508 4.447.296 8.913-.029 13.365.165.506-.445 1.495-.755 1.316-1.612-.299-5.099-.386-10.212-.882-15.296-.077-4.29-.14-8.604-.772-12.85-.135-2.528-.458-5.075-1.365-7.453-.714-1.423-2.074-2.624-3.704-2.78zm76.898 34.156a15.19 15.19 0 013.024 1.865c-.207 1.055-.415 2.115-.66 3.166l-2.403.693-.564-.857-.911-.16c-.217-.756-.44-1.506-.661-2.257.69-.847 1.428-1.65 2.175-2.45zm-87.682-26.994c-1.828 3.985-1.954 8.396-2.17 12.696.65 2.711.65 5.52.964 8.28l1.066-.136c-.053-3.215.733-6.362.781-9.568.106-1.883.082-3.781.328-5.655.164-1.7.285-3.443-.058-5.128-.226-.12-.685-.368-.911-.489zM60.789 63.017c.227.232.676.687.902.92 1.023 3.796 2.07 7.592 2.648 11.485.588 4.644.873 9.32 1.003 13.993 3.98.286 7.616-1.544 11.344-2.61 5.276-1.767 10.678-3.147 16.07-4.483 2.764-1.08 5.735-1.336 8.653-1.7 1.606-.198 3.154.32 4.644.848 0 1.084-.024 2.169-.033 3.254-1.182.435-2.45.644-3.666.232-6.902.044-13.543 2.276-20.19 3.898-2.999.634-5.796 1.985-8.84 2.426-1.721.707-3.516 1.186-5.295 1.709-.975.17-1.481 1.099-2.166 1.704.376 6.677.868 13.35 1.206 20.027.603 2.566.024 5.311 1.056 7.79 1.683 4.334 2.899 8.827 4.36 13.234 1.384 5.607 3.52 11.34 2.484 17.193-.188 1.618-1.297 2.935-2.566 3.86-1.808.813-3.786-.47-4.664-2.063-1.128-2.073-1.254-4.498-1.683-6.779-.858-9.079-1.567-18.167-1.963-27.275l-.738-.799c-1.543-5.718-4.384-10.981-7.172-16.172-1.562-1.598-2.821-3.457-3.844-5.442-2.31.372-4.528 1.196-6.868 1.404-3.54.46-7.065-.32-10.6-.421-1.698-.596-3.497-.872-5.113-1.69-.135-.015-.41-.04-.545-.054-1.485-1.128-3.362-1.665-4.702-2.997-1.278-1.19-1.794-2.92-2.508-4.469-.039-2.213.318-4.576 2.03-6.15 2.99-3.35 7.958-3.384 12.01-2.444.159.169.472.503.631.668 1.66.711 3.155 1.748 4.732 2.614 1.167 1.143 2.498 2.082 3.82 3.022 1.924 1.694 3.737 3.52 5.59 5.292.612.266 1.215.547 1.818.838.439-.073.882-.14 1.326-.213 1.1-.455 2.233-.819 3.352-1.216 1.63-.237 3.236-.61 4.813-1.075.063-3.675-.472-7.316-.631-10.981-.266-5.331-1.549-10.536-3.126-15.616.304-1.21 1.148-1.898 2.421-1.762zm157.332 11.96c2.426.963 5.165 2.043 6.438 4.522 1.563 2.726.772 6.067-.246 8.851-.4 1.438-1.398 2.571-2.262 3.743-1.35 2.43-3.636 4.092-5.276 6.295-1.823 1.355-3.323 3.084-5.175 4.401-.613.363-.651 1.128-.887 1.729 1.138.077 2.31.135 3.376.595 3.67 1.26 7.63 2.668 9.988 5.96 3.974 5.438 4.375 12.842 2.31 19.107-1.08 2.649-2.209 5.321-4.032 7.558l-.356.388c-2.14 2.334-4.357 4.741-7.418 5.81-3.777 2.489-8.47 2.576-12.834 2.47-5.87-.213-11.498-2.218-16.664-4.925-.757-.087-1.52-.164-2.272-.237.98 2.862 1.944 5.781 1.804 8.851l-1.418 1.651c-.65-.004-1.297-.01-1.943-.01-1.047-1.757-1.9-3.626-2.701-5.505-.613-1.82-.893-3.747-1.756-5.476-.198-2.716-1.06-5.321-1.389-8.018-1.345-3.554-2.522-7.186-4.157-10.624-1.057-2.425-1.708-5.006-2.831-7.398-1.047-3.094-2.634-5.966-3.71-9.05-1.914-3.302-3.284-6.875-5.04-10.26-.747-1.385-.96-2.963-1.075-4.513 1.326-2.949 4.201-4.542 6.651-6.415a60.89 60.89 0 0116.181-6.624c7.934-2.213 16.2-3.041 24.414-3.25 4.085-.212 8.243-.454 12.28.374zm-148.37 66.96c-.275 2.174-.536 4.391-.213 6.575.507.271 1.028.513 1.563.731.41-1.995.256-4.062-.068-6.052-.091-.659-.858-.857-1.282-1.255zm59.187-37.22c.372.648.734 1.302 1.1 1.955.082 1.308.323 2.596.492 3.888.198 2.935-1.75 5.748-.796 8.672 1.958 5.094 4.635 10.15 4.654 15.747.285 2.764-1.692 5.011-3.356 6.972-2.045 1.196-3.921 3.113-6.444 3.109-3.622.493-6.38-2.581-8.112-5.38-2.335 2.082-4.037 5.292-7.312 5.975a16.59 16.59 0 01-5.315.097c-.376-.537-.854-.993-1.297-1.467-.251-.087-.762-.257-1.018-.34-.67-.92-1.249-1.907-2.006-2.754-.386-.48-1.196-.538-1.52.048-.983 1.433-2.016 2.838-3.28 4.043a81.33 81.33 0 00-2.112.417c-2.339-.974-3.954-3.39-3.998-5.922-.087-3.888.318-7.771.058-11.655-1.047-.774-2.06-1.622-3.275-2.13.145 5.195-1.215 10.497-4.326 14.7-.796.993-1.881 1.675-2.846 2.484-.294-.02-.877-.063-1.167-.087-.116-.354-.337-1.07-.448-1.424.945-1.375 1.876-2.76 2.816-4.135 1.925-4.464 3.26-9.301 2.995-14.211-.207-1.385-.964-2.615-1.577-3.859.212-.76.43-1.52.647-2.285a155.99 155.99 0 001.774-.93c1.24.925 1.737 2.387 1.867 3.878 2.421 2.005 5.02 3.816 7.046 6.261.835 4.595-.106 9.263-.13 13.882.077.266.227.79.3 1.05 2.136-.905 3.9-2.696 5.362-4.483-.477-4.518-.902-9.195.526-13.606.98-3.234 3.66-6.203 7.153-6.551 2.069-.683 4.046.736 5.131 2.406 1.655 2.16 1.486 5.104 1.047 7.636-1.35 2.746-2.88 5.457-5.373 7.326l-1.191 1.104a91.516 91.516 0 00-2.928 2.813c.598 1.06 1.047 2.237 1.852 3.167.675.523 1.466.857 2.214 1.259 1.302-.18 2.691-.13 3.887-.77 2.238-.978 3.43-3.25 5.103-4.905.193-.02.574-.063.767-.082.637-.906 1.61-1.443 2.672-.862.453 1.496 1.654 2.537 2.411 3.864 1.63 1.278 4.056 1.602 5.783.339 1.476-.848 2.513-2.218 3.386-3.646 0-1.903.342-3.87-.29-5.714-.766-2.547-1.548-5.108-2.725-7.5a70.93 70.93 0 00-3.53 5.878c-1.047 1.622-2.547 2.866-3.752 4.367-.473.165-.95.33-1.423.5-.179-.19-.545-.562-.728-.751l.25-1.288c1.076-1.022 2.08-2.13 2.846-3.409 1.244-2.145 2.797-4.12 3.656-6.469l.29-.484c.293-.978.699-1.918.92-2.91-.135-2.3-1.036-4.523-.733-6.852.27-2.067.217-4.488 1.77-6.071.555-.654 1.476-.664 2.233-.906zm141.86 10.85c.332.644.68 1.293 1.027 1.937-.169 3.413-.015 6.827.323 10.221.135 3.888.57 7.772 1.635 11.52.203.183.617.546.825.73 2.918-3.311 3.742-7.795 4.717-11.964.207-1.22 1.2-2.02 2.006-2.867.367.005 1.1.01 1.466.01 2.518 2.421 2.016 6.154 2.547 9.311.067 2.087 1.915 3.462 3.414 4.624 1.153.19 1.997.906 2.697 1.811v.247c-.926.44-1.775 1.366-2.885 1.012-2.956-.43-4.987-2.852-6.376-5.311-.641.203-1.413.32-1.557 1.113-.95 2.523-2.504 4.77-4.63 6.426-1.862.092-3.627-.465-5.2-1.443-1.143-2.32-1.65-4.847-2.218-7.35-2.267 1.442-3.463 3.999-5.605 5.597-1.562 1.419-3.675 1.806-5.575 2.547-1.635.571-3.285 1.375-5.06 1.196-3.158-.267-6.173-2.218-7.335-5.249-1.413.596-2.21 1.888-2.798 3.24-2.344 1.413-4.982 2.227-7.726 2.207-1.384-.978-2.894-1.878-3.878-3.302-1.548-2.276-2.02-5.113-1.958-7.825.048-3.249-.145-6.643 1.08-9.718.285-.93 1.08-1.52 1.775-2.13.338.344 1.013 1.041 1.35 1.39-.245 5.127-1.118 10.405.387 15.431a83.173 83.173 0 011.726 1.729c1.288.01 2.595.135 3.873-.126 1.818-1.201 3.193-2.959 4.794-4.426-.501-5.33-1.336-11.054 1.192-16.037 1.562-3.505 6.096-5.272 9.588-3.733 2.382 1.714 3.974 4.818 3.207 7.777-.93 5.476-5.537 9.093-9.632 12.313.174 3.084 3.343 5.437 6.333 4.755 3.087-.543 4.818-3.438 7.018-5.37.993-.213 2.512.285 3.086-.809 3.323-5.655 3.656-12.424 3.651-18.825a27.384 27.384 0 012.716-.659zm-62.733-37.419c-6.815.286-13.567 1.312-20.262 2.595-2.84.557-5.512 1.753-8.363 2.271-2.15.552-4.085 1.734-6.26 2.242-3.897 1.492-7.625 3.574-10.808 6.3.79 1.985 1.181 4.212 2.59 5.887.299 1.046.641 2.083.954 3.124 2.103 4.56 3.95 9.228 5.6 13.978.395.78.502 2.13 1.645 2.058.892-1.854.019-3.994.091-5.955.087-4.48-.38-8.948-.27-13.432.222-2.102-.072-4.242.304-6.319.603-.247 1.235-.407 1.862-.6 1.114 2.125.506 4.585.887 6.87.473 9.544.965 19.102 2.33 28.563.603 4.678.786 9.602 3.086 13.834.135.048.4.15.536.198.506-.648 1.128-1.186 1.799-1.66 3.472 1.622 7.152 2.706 10.76 3.965 3.728 1.274 7.712 1.216 11.594 1.036 1.413-.237 2.754-.794 4.124-1.21a16.061 16.061 0 008.035-4.823c2.658-2.193 4.061-5.534 4.982-8.788.772-2.561.58-5.263.758-7.897-.198-2.988-1.862-5.472-3.444-7.883-1.539-1.157-3.227-2.077-4.886-3.04-.183.019-.545.062-.728.082-.974-.504-1.997-.969-3.101-1.046-2.383-.17-4.736-.572-7.11-.828-2.015-.296-3.8.871-5.618 1.544-3.974 1.443-8.402 2.818-12.53 1.09-.155-1.119-1.071-2.368-.314-3.428 1.216-1.69 3.39-2.087 5.3-2.46 3.01-.702 6.116-.794 9.198-.726 2.759.092 4.857-1.966 7.119-3.235 2.45-1.302 4.21-3.496 6.328-5.234 1.939-1.627 3.516-3.622 5.228-5.476.974-2.3 2.435-4.571 2.2-7.181-.324-1.453-1.554-2.411-2.576-3.38-3.54-1.273-7.341-1.113-11.04-1.036zM105.88 120.312c-1.1.62-2.407 1.114-3.039 2.3-1.799 2.808-1.775 6.241-1.75 9.457 1.09-.136 2.425 0 3.163-.998 1.766-2.242 3.864-4.668 3.772-7.713-.044-1.37-1.1-2.33-2.146-3.046zm145.698-.91c-1.162.48-2.305 1.055-3.101 2.072-1.79 3.152-1.664 6.92-1.64 10.43l1.182.077c2.18-2.048 4.142-4.353 5.614-6.972.115-1.283.424-2.624-.02-3.879-.222-.968-1.302-1.249-2.035-1.728zm-150.922-12.633c.868 1.133 1.809 2.348 3.246 2.765 1.216.324 2.233 1.065 3.101 1.951a55.381 55.381 0 01-.873 2.663c-1.5-.27-2.913-.857-4.311-1.438-1.8-.76-2.894-2.47-4.254-3.781.14-.698.159-1.463.598-2.058.8-.3 1.664-.14 2.493-.102zm137.094.843c-.197 1.307-.405 2.91-1.808 3.466-.96.644-1.954-.092-2.856-.45a77.048 77.048 0 00-.776-1.83c.333-.983.685-2.155 1.823-2.45 1.375-.683 2.537.615 3.617 1.264zM62.39 95.168c-2.493.363-4.88 1.205-7.301 1.874.144.687.1 1.457.525 2.048 2.257 2.92 4.384 5.97 6.015 9.296l.955.518.463-1.641c-.082-4.038-.555-8.057-.656-12.095zm-31.793-10.87c-1.037.498-2.06 1.03-3.091 1.54-.415.454-.835.905-1.254 1.355.038 1.056.116 2.111.24 3.157 2.644 3.263 6.965 4.01 10.853 4.745l.58.083c3.492.496 7.11.91 10.522-.209-.154-.571-.318-1.143-.477-1.714-2.17-1.888-4.143-4.019-6.564-5.597-3.145-2.203-6.888-3.854-10.809-3.36z" fill="#A8986C" fill-rule="nonzero"/></g></svg>